# xmcd
#
# Track frame offsets:
#	150
#	15152
#	29030
#	42129
#	58902
#	71766
#	81811
#	94572
#	106579
#	126732
#	147829
#	162595
#	180314
#	194190
#	211125
#	221565
#	237501
#	249110
#	259275
#	271501
#	285352
#	299985
#
# Disc length: 4150 seconds
# Revision: 0
# Processed by: cddbd v1.5.2PL0 Copyright (c) Steve Scherf et al.
# Submitted via: dBpowerAMP V12.0
#
DISCID=4c103416
DTITLE=Jerry Lee Lewis - Country Class - Country Memories
DYEAR=1976
DGENRE=Country
TTITLE0=Let's Put It Back Together Again
TTITLE1=No ONe Will Ever Know
TTITLE2=You Belong To Me
TTITLE3=I Sure Miss Those Good Old TImes
TTITLE4=The Old Country Chruch
TTITLE5=After The Fool You've Made Of Me
TTITLE6=Jerry Lee's Rok and Roll Revival Show
TTITLE7=Wedding Bells
TTITLE8=Only Love Can Get You In My Door
TTITLE9=The One Rose That's Left In My Heart
TTITLE10=The Closest Thing To You
TTITLE11=Middle Age Cracy
TTITLE12=Let's Say Goodbye Like We Said Hello
TTITLE13=Who's Sorry Now
TTITLE14=Jealous Heart
TTITLE15=Georgia On My Mind
TTITLE16=Come On In
TTITLE17=As Long As We Love
TTITLE18=(You'd Think By Now) I'd Be Over You
TTITLE19=Country Memories
TTITLE20=What's So Good About Goodbye
TTITLE21=Tennessee Saturday Night
EXTD=
EXTT0=
EXTT1=
EXTT2=
EXTT3=
EXTT4=
EXTT5=
EXTT6=
EXTT7=
EXTT8=
EXTT9=
EXTT10=
EXTT11=
EXTT12=
EXTT13=
EXTT14=
EXTT15=
EXTT16=
EXTT17=
EXTT18=
EXTT19=
EXTT20=
EXTT21=
PLAYORDER=
